%TF.GenerationSoftware,KiCad,Pcbnew,9.0.2*%
%TF.CreationDate,2025-07-07T13:49:35+02:00*%
%TF.ProjectId,Particulate_matters,50617274-6963-4756-9c61-74655f6d6174,rev?*%
%TF.SameCoordinates,Original*%
%TF.FileFunction,Copper,L1,Top*%
%TF.FilePolarity,Positive*%
%FSLAX46Y46*%
G04 Gerber Fmt 4.6, Leading zero omitted, Abs format (unit mm)*
G04 Created by KiCad (PCBNEW 9.0.2) date 2025-07-07 13:49:35*
%MOMM*%
%LPD*%
G01*
G04 APERTURE LIST*
G04 Aperture macros list*
%AMRoundRect*
0 Rectangle with rounded corners*
0 $1 Rounding radius*
0 $2 $3 $4 $5 $6 $7 $8 $9 X,Y pos of 4 corners*
0 Add a 4 corners polygon primitive as box body*
4,1,4,$2,$3,$4,$5,$6,$7,$8,$9,$2,$3,0*
0 Add four circle primitives for the rounded corners*
1,1,$1+$1,$2,$3*
1,1,$1+$1,$4,$5*
1,1,$1+$1,$6,$7*
1,1,$1+$1,$8,$9*
0 Add four rect primitives between the rounded corners*
20,1,$1+$1,$2,$3,$4,$5,0*
20,1,$1+$1,$4,$5,$6,$7,0*
20,1,$1+$1,$6,$7,$8,$9,0*
20,1,$1+$1,$8,$9,$2,$3,0*%
G04 Aperture macros list end*
%TA.AperFunction,ComponentPad*%
%ADD10R,1.700000X1.700000*%
%TD*%
%TA.AperFunction,ComponentPad*%
%ADD11C,1.700000*%
%TD*%
%TA.AperFunction,SMDPad,CuDef*%
%ADD12RoundRect,0.150000X-0.150000X-0.625000X0.150000X-0.625000X0.150000X0.625000X-0.150000X0.625000X0*%
%TD*%
%TA.AperFunction,SMDPad,CuDef*%
%ADD13RoundRect,0.250000X-0.350000X-0.650000X0.350000X-0.650000X0.350000X0.650000X-0.350000X0.650000X0*%
%TD*%
%TA.AperFunction,SMDPad,CuDef*%
%ADD14RoundRect,0.152400X1.063600X0.609600X-1.063600X0.609600X-1.063600X-0.609600X1.063600X-0.609600X0*%
%TD*%
%TA.AperFunction,ComponentPad*%
%ADD15C,1.524000*%
%TD*%
%TA.AperFunction,SMDPad,CuDef*%
%ADD16RoundRect,0.152400X-1.063600X-0.609600X1.063600X-0.609600X1.063600X0.609600X-1.063600X0.609600X0*%
%TD*%
%TA.AperFunction,ViaPad*%
%ADD17C,0.600000*%
%TD*%
%TA.AperFunction,Conductor*%
%ADD18C,0.200000*%
%TD*%
G04 APERTURE END LIST*
D10*
%TO.P,U5,1,GND*%
%TO.N,GND*%
X77470000Y-91440000D03*
D11*
%TO.P,U5,2,VCC*%
%TO.N,VCC*%
X77470000Y-93980000D03*
%TO.P,U5,3,SCK*%
%TO.N,Net-(U1-GPIO9{slash}D5{slash}I2C_SCL)*%
X77470000Y-96520000D03*
%TO.P,U5,4,SDA*%
%TO.N,Net-(U1-GPIO5{slash}D4{slash}I2C_SDA)*%
X77470000Y-99060000D03*
%TD*%
D12*
%TO.P,U3,1,GND*%
%TO.N,GND*%
X90194000Y-98584000D03*
%TO.P,U3,2,VCC*%
%TO.N,VCC*%
X91194000Y-98584000D03*
%TO.P,U3,3,SDA*%
%TO.N,Net-(U1-GPIO5{slash}D4{slash}I2C_SDA)*%
X92194000Y-98584000D03*
%TO.P,U3,4,SDL*%
%TO.N,Net-(U1-GPIO9{slash}D5{slash}I2C_SCL)*%
X93194000Y-98584000D03*
D13*
%TO.P,U3,MP*%
%TO.N,N/C*%
X88894000Y-102459000D03*
X94494000Y-102459000D03*
%TD*%
D10*
%TO.P,U2,1,PPS*%
%TO.N,unconnected-(U2-PPS-Pad1)*%
X76380000Y-83000000D03*
D11*
%TO.P,U2,2,RX*%
%TO.N,Net-(U1-GPIO2{slash}DA{slash}A1)*%
X78920000Y-83000000D03*
%TO.P,U2,3,TX*%
%TO.N,Net-(U1-GPIO3{slash}D2{slash}A2)*%
X81460000Y-83000000D03*
%TO.P,U2,4,GND*%
%TO.N,GND*%
X84000000Y-83000000D03*
%TO.P,U2,5,VCC*%
%TO.N,VCC*%
X86540000Y-83000000D03*
%TD*%
D14*
%TO.P,U1,1,GPIO1/D0/A0*%
%TO.N,unconnected-(U1-GPIO1{slash}D0{slash}A0-Pad1)*%
X94039000Y-58908750D03*
D15*
X94874000Y-58908750D03*
D14*
%TO.P,U1,2,GPIO2/DA/A1*%
%TO.N,Net-(U1-GPIO2{slash}DA{slash}A1)*%
X94039000Y-61448750D03*
D15*
X94874000Y-61448750D03*
D14*
%TO.P,U1,3,GPIO3/D2/A2*%
%TO.N,Net-(U1-GPIO3{slash}D2{slash}A2)*%
X94039000Y-63988750D03*
D15*
X94874000Y-63988750D03*
D14*
%TO.P,U1,4,GPIO4/D3/A3*%
%TO.N,unconnected-(U1-GPIO4{slash}D3{slash}A3-Pad4)*%
X94039000Y-66528750D03*
D15*
X94874000Y-66528750D03*
D14*
%TO.P,U1,5,GPIO5/D4/I2C_SDA*%
%TO.N,Net-(U1-GPIO5{slash}D4{slash}I2C_SDA)*%
X94039000Y-69068750D03*
D15*
X94874000Y-69068750D03*
D14*
%TO.P,U1,6,GPIO9/D5/I2C_SCL*%
%TO.N,Net-(U1-GPIO9{slash}D5{slash}I2C_SCL)*%
X94039000Y-71608750D03*
D15*
X94874000Y-71608750D03*
D14*
%TO.P,U1,7,U0TXD/D6/TX*%
%TO.N,unconnected-(U1-U0TXD{slash}D6{slash}TX-Pad7)*%
X94039000Y-74148750D03*
D15*
X94874000Y-74148750D03*
%TO.P,U1,8,U0RXD/D7/RX*%
%TO.N,Net-(U1-U0RXD{slash}D7{slash}RX)*%
X110114000Y-74148750D03*
D16*
X110949000Y-74148750D03*
D15*
%TO.P,U1,9,GPIO7/D8/A8/SCK*%
%TO.N,Net-(U1-GPIO7{slash}D8{slash}A8{slash}SCK)*%
X110114000Y-71608750D03*
D16*
X110949000Y-71608750D03*
D15*
%TO.P,U1,10,GPIO8/D9/A9/MISO*%
%TO.N,Net-(U1-GPIO8{slash}D9{slash}A9{slash}MISO)*%
X110114000Y-69068750D03*
D16*
X110949000Y-69068750D03*
D15*
%TO.P,U1,11,GPIO9/D10/A10/MOSI*%
%TO.N,Net-(U1-GPIO9{slash}D10{slash}A10{slash}MOSI)*%
X110114000Y-66528750D03*
D16*
X110949000Y-66528750D03*
D15*
%TO.P,U1,12,VCC_3V3*%
%TO.N,VCC*%
X110114000Y-63988750D03*
D16*
X110949000Y-63988750D03*
D15*
%TO.P,U1,13,GND*%
%TO.N,GND*%
X110114000Y-61448750D03*
D16*
X110949000Y-61448750D03*
D15*
%TO.P,U1,14,VBUS*%
%TO.N,unconnected-(U1-VBUS-Pad14)*%
X110114000Y-58908750D03*
D16*
X110949000Y-58908750D03*
%TD*%
D10*
%TO.P,U4,1,GND*%
%TO.N,GND*%
X116420000Y-82500000D03*
D11*
%TO.P,U4,2,MISO*%
%TO.N,Net-(U1-GPIO8{slash}D9{slash}A9{slash}MISO)*%
X118960000Y-82500000D03*
%TO.P,U4,3,CLK*%
%TO.N,Net-(U1-GPIO7{slash}D8{slash}A8{slash}SCK)*%
X121500000Y-82500000D03*
%TO.P,U4,4,MOSI*%
%TO.N,Net-(U1-GPIO9{slash}D10{slash}A10{slash}MOSI)*%
X124040000Y-82500000D03*
%TO.P,U4,5,CS*%
%TO.N,Net-(U1-U0RXD{slash}D7{slash}RX)*%
X126580000Y-82500000D03*
%TO.P,U4,6,3V3*%
%TO.N,VCC*%
X129120000Y-82500000D03*
%TD*%
D17*
%TO.N,GND*%
X90170000Y-96774000D03*
%TD*%
D18*
%TO.N,Net-(U1-GPIO8{slash}D9{slash}A9{slash}MISO)*%
X110114000Y-69068750D02*
X108985250Y-69068750D01*
X118960000Y-74002000D02*
X118960000Y-82500000D01*
X108985250Y-69068750D02*
X108458000Y-69596000D01*
X108458000Y-72136000D02*
X108993750Y-72671750D01*
X108993750Y-72671750D02*
X117629750Y-72671750D01*
X108458000Y-69596000D02*
X108458000Y-72136000D01*
X117629750Y-72671750D02*
X118960000Y-74002000D01*
%TO.N,Net-(U1-GPIO3{slash}D2{slash}A2)*%
X81460000Y-83000000D02*
X81460000Y-66876000D01*
X81460000Y-66876000D02*
X84347250Y-63988750D01*
X84347250Y-63988750D02*
X94039000Y-63988750D01*
%TO.N,Net-(U1-GPIO2{slash}DA{slash}A1)*%
X78920000Y-83000000D02*
X78920000Y-65860000D01*
X78920000Y-65860000D02*
X83331250Y-61448750D01*
X83331250Y-61448750D02*
X94039000Y-61448750D01*
%TO.N,GND*%
X90194000Y-96798000D02*
X90170000Y-96774000D01*
X90194000Y-98584000D02*
X90194000Y-96798000D01*
%TO.N,VCC*%
X77470000Y-93980000D02*
X86614000Y-93980000D01*
X86540000Y-93906000D02*
X86614000Y-93980000D01*
X86540000Y-83000000D02*
X86540000Y-93906000D01*
X86614000Y-93980000D02*
X88138000Y-93980000D01*
X88138000Y-93980000D02*
X88332900Y-93980000D01*
X88332900Y-93980000D02*
X91194000Y-96841100D01*
X91194000Y-96841100D02*
X91194000Y-98584000D01*
%TO.N,Net-(U1-U0RXD{slash}D7{slash}RX)*%
X110114000Y-74148750D02*
X110114000Y-83698000D01*
X110114000Y-83698000D02*
X111506000Y-85090000D01*
X111506000Y-85090000D02*
X125730000Y-85090000D01*
X126580000Y-84240000D02*
X126580000Y-82500000D01*
X125730000Y-85090000D02*
X126580000Y-84240000D01*
%TO.N,VCC*%
X129120000Y-82500000D02*
X129120000Y-65620000D01*
X129120000Y-65620000D02*
X127488750Y-63988750D01*
X127488750Y-63988750D02*
X110949000Y-63988750D01*
%TO.N,Net-(U1-GPIO9{slash}D10{slash}A10{slash}MOSI)*%
X110949000Y-66528750D02*
X122408750Y-66528750D01*
X122408750Y-66528750D02*
X124040000Y-68160000D01*
X124040000Y-68160000D02*
X124040000Y-82500000D01*
%TO.N,Net-(U1-GPIO7{slash}D8{slash}A8{slash}SCK)*%
X110949000Y-71608750D02*
X119868750Y-71608750D01*
X119868750Y-71608750D02*
X121500000Y-73240000D01*
X121500000Y-73240000D02*
X121500000Y-82500000D01*
%TO.N,VCC*%
X110114000Y-63988750D02*
X104921250Y-63988750D01*
X86540000Y-69162000D02*
X86540000Y-83000000D01*
X104921250Y-63988750D02*
X101092000Y-67818000D01*
X101092000Y-67818000D02*
X87884000Y-67818000D01*
X87884000Y-67818000D02*
X86540000Y-69162000D01*
%TO.N,Net-(U1-GPIO5{slash}D4{slash}I2C_SDA)*%
X92194000Y-98584000D02*
X92202000Y-98576000D01*
X92202000Y-98576000D02*
X92202000Y-97282000D01*
X92202000Y-97282000D02*
X91186000Y-96266000D01*
X91186000Y-69850000D02*
X91967250Y-69068750D01*
X91186000Y-96266000D02*
X91186000Y-69850000D01*
X91967250Y-69068750D02*
X94039000Y-69068750D01*
%TO.N,Net-(U1-GPIO9{slash}D5{slash}I2C_SCL)*%
X93194000Y-97004000D02*
X91948000Y-95758000D01*
X91948000Y-95758000D02*
X91948000Y-72136000D01*
X93194000Y-98584000D02*
X93194000Y-97004000D01*
X94019750Y-71628000D02*
X94039000Y-71608750D01*
X91948000Y-72136000D02*
X92456000Y-71628000D01*
X92456000Y-71628000D02*
X94019750Y-71628000D01*
X76200000Y-96520000D02*
X75692000Y-97028000D01*
X75692000Y-100330000D02*
X76200000Y-100838000D01*
X75692000Y-97028000D02*
X75692000Y-100330000D01*
X77470000Y-96520000D02*
X76200000Y-96520000D01*
X76200000Y-100838000D02*
X92456000Y-100838000D01*
X92456000Y-100838000D02*
X93194000Y-100100000D01*
X93194000Y-100100000D02*
X93194000Y-98584000D01*
%TO.N,Net-(U1-GPIO5{slash}D4{slash}I2C_SDA)*%
X77470000Y-99060000D02*
X81280000Y-99060000D01*
X81280000Y-99060000D02*
X82042000Y-99822000D01*
X92194000Y-99322000D02*
X92194000Y-98584000D01*
X82042000Y-99822000D02*
X91694000Y-99822000D01*
X91694000Y-99822000D02*
X92194000Y-99322000D01*
%TO.N,Net-(U1-U0RXD{slash}D7{slash}RX)*%
X126696000Y-82500000D02*
X126746000Y-82550000D01*
X126580000Y-82500000D02*
X126696000Y-82500000D01*
%TD*%
M02*
